HIERARCHY
ROOT Hips
{
	OFFSET 0.000000 0.000000 0.000000
	CHANNELS 6 Xposition Yposition Zposition Zrotation Yrotation Xrotation 
	JOINT LHipJoint
	{
		OFFSET 0.000000 0.000000 0.000000
		CHANNELS 3 Zrotation Yrotation Xrotation
		JOINT LeftUpLeg
		{
			OFFSET 1.363060 -1.794630 0.839290
			CHANNELS 3 Zrotation Yrotation Xrotation
			JOINT LeftLeg
			{
				OFFSET 2.448110 -6.726130 0.000000
				CHANNELS 3 Zrotation Yrotation Xrotation
				JOINT LeftFoot
				{
					OFFSET 2.562200 -7.039590 0.000000
					CHANNELS 3 Zrotation Yrotation Xrotation
					JOINT LeftToeBase
					{
						OFFSET 0.157640 -0.433110 2.322550
						CHANNELS 3 Zrotation Yrotation Xrotation
						End Site
						{
							OFFSET 0.000000 0.000000 0.000000
						}
					}
				}
			}
		}
	}
	JOINT RHipJoint
	{
		OFFSET 0.000000 0.000000 0.000000
		CHANNELS 3 Zrotation Yrotation Xrotation
		JOINT RightUpLeg
		{
			OFFSET -1.305520 -1.794630 0.839290
			CHANNELS 3 Zrotation Yrotation Xrotation
			JOINT RightLeg
			{
				OFFSET -2.542530 -6.985550 0.000000
				CHANNELS 3 Zrotation Yrotation Xrotation
				JOINT RightFoot
				{
					OFFSET -2.568260 -7.056230 0.000000
					CHANNELS 3 Zrotation Yrotation Xrotation
					JOINT RightToeBase
					{
						OFFSET -0.164730 -0.452590 2.363150
						CHANNELS 3 Zrotation Yrotation Xrotation
						End Site
						{
							OFFSET 0.000000 0.000000 0.000000
						}
					}
				}
			}
		}
	}
	JOINT LowerBack
	{
		OFFSET 0.000000 0.000000 0.000000
		CHANNELS 3 Zrotation Yrotation Xrotation
		JOINT Spine
		{
			OFFSET 0.028270 2.035590 -0.193380
			CHANNELS 3 Zrotation Yrotation Xrotation
			JOINT Spine1
			{
				OFFSET 0.056720 2.048850 -0.042750
				CHANNELS 3 Zrotation Yrotation Xrotation
				JOINT Neck
				{
					OFFSET 0.000000 0.000000 0.000000
					CHANNELS 3 Zrotation Yrotation Xrotation
					JOINT Neck1
					{
						OFFSET -0.054170 1.746240 0.172020
						CHANNELS 3 Zrotation Yrotation Xrotation
						JOINT Head
						{
							OFFSET 0.104070 1.761360 -0.123970
							CHANNELS 3 Zrotation Yrotation Xrotation
							End Site
							{
								OFFSET 0.000000 0.000000 0.000000
							}
						}
					}
				}
				JOINT LeftShoulder
				{
					OFFSET 0.000000 0.000000 0.000000
					CHANNELS 3 Zrotation Yrotation Xrotation
					JOINT LeftArm
					{
						OFFSET 3.362410 1.200890 -0.311210
						CHANNELS 3 Zrotation Yrotation Xrotation
						JOINT LeftForeArm
						{
							OFFSET 4.983000 -0.000000 -0.000000
							CHANNELS 3 Zrotation Yrotation Xrotation
							JOINT LeftHand
							{
								OFFSET 3.483560 -0.000000 -0.000000
								CHANNELS 3 Zrotation Yrotation Xrotation
								JOINT LeftFingerBase
								{
									OFFSET 0.000000 0.000000 0.000000
									CHANNELS 3 Zrotation Yrotation Xrotation
									JOINT LeftHandIndex1
									{
										OFFSET 0.715260 -0.000000 -0.000000
										CHANNELS 3 Zrotation Yrotation Xrotation
										End Site
										{
											OFFSET 0.000000 0.000000 0.000000
										}
									}
								}
								JOINT LThumb
								{
									OFFSET 0.000000 0.000000 0.000000
									CHANNELS 3 Zrotation Yrotation Xrotation
									End Site
									{
										OFFSET 0.000000 0.000000 0.000000
									}
								}
							}
						}
					}
				}
				JOINT RightShoulder
				{
					OFFSET 0.000000 0.000000 0.000000
					CHANNELS 3 Zrotation Yrotation Xrotation
					JOINT RightArm
					{
						OFFSET -3.136600 1.374050 -0.404650
						CHANNELS 3 Zrotation Yrotation Xrotation
						JOINT RightForeArm
						{
							OFFSET -5.241900 -0.000000 -0.000000
							CHANNELS 3 Zrotation Yrotation Xrotation
							JOINT RightHand
							{
								OFFSET -3.444170 -0.000000 -0.000000
								CHANNELS 3 Zrotation Yrotation Xrotation
								JOINT RightFingerBase
								{
									OFFSET 0.000000 0.000000 0.000000
									CHANNELS 3 Zrotation Yrotation Xrotation
									JOINT RightHandIndex1
									{
										OFFSET -0.622530 -0.000000 -0.000000
										CHANNELS 3 Zrotation Yrotation Xrotation
										End Site
										{
											OFFSET 0.000000 0.000000 0.000000
										}
									}
								}
								JOINT RThumb
								{
									OFFSET 0.000000 0.000000 0.000000
									CHANNELS 3 Zrotation Yrotation Xrotation
									End Site
									{
										OFFSET 0.000000 0.000000 0.000000
									}
								}
							}
						}
					}
				}
			}
		}
	}
}
MOTION
Frames: 12
Frame Time: 0.008333
-40.277566 17.500643 -2.116400 -176.580366 -1.795466 -172.210527 20.707359 3.377287 -2.073219 -42.461504 -38.253808 18.190854 -12.042805 -3.092822 -3.977962 6.249613 -10.070991 -44.162517 2.260700 -9.389200 -27.020400 -23.733882 -3.946688 -4.848404 48.564453 14.738413 2.479391 13.592652 -4.117794 8.512960 -3.135200 -2.024889 -32.180658 -0.000100 0.072400 -0.198800 3.613393 1.011812 10.164768 1.066090 1.125047 -4.806801 -0.006915 -0.085505 -14.571341 1.830292 -1.945122 -24.179408 2.860398 -6.764541 21.761756 -1.540800 -3.191000 16.846100 8.662642 -6.594362 0.979939 -85.905580 12.563690 21.824104 17.397338 -29.448774 -4.660867 -0.257001 2.857238 1.869242 17.309641 24.359693 6.625500 -7.125000 0.000000 0.000000 -11.195200 51.920300 -1.927600 -9.957730 6.754008 1.960396 70.074228 -11.163608 52.331983 -25.406852 37.050537 -5.490243 2.578799 -0.526867 19.504194 28.772368 -1.870551 -1.147000 7.125000 0.000000 0.000000 38.692200 -29.642500 18.719500 
-40.277458 17.501932 -2.123813 -176.316704 -1.902467 -172.311208 20.759476 3.386509 -2.053872 -42.292754 -38.229964 18.253198 -12.046345 -3.045583 -3.828477 6.259933 -9.832418 -44.068992 1.916000 -8.688900 -24.826800 -23.958287 -3.980054 -4.868368 49.419259 15.027244 4.335878 14.145570 -2.519768 5.200268 -3.061357 -7.658800 -31.194229 -0.431300 4.214500 -11.680900 4.602895 1.000339 9.969601 0.905129 1.195624 -4.866198 -0.840288 -0.213729 -14.657698 1.368414 -2.042185 -23.313367 3.245519 -6.796099 21.603185 -1.199400 -3.275300 16.547900 8.565311 -6.660871 1.022396 -85.393257 13.159917 23.267472 17.678332 -29.670054 -4.737372 -0.305416 2.854608 0.401194 17.747947 24.718790 6.893900 -7.125000 0.000000 0.000000 -10.918900 52.342400 -1.992800 -9.905988 6.821119 1.894796 70.120736 -12.500587 61.871994 -26.716759 38.255667 -6.063493 1.320409 -2.268740 -6.575474 -3.644283 -17.275943 1.211700 7.125000 0.000000 0.000000 20.776100 -43.834700 0.626100 
-40.274772 17.502899 -2.130582 -176.120743 -2.102173 -172.420081 20.841083 3.337068 -2.122582 -42.075163 -37.846867 18.148693 -12.110801 -2.987746 -3.640916 6.167868 -8.765396 -43.685000 1.987100 -8.839200 -25.293500 -24.276721 -3.820733 -4.708224 50.786122 17.625684 7.946830 14.601879 -0.027916 0.552837 -3.321106 -11.132123 -33.312937 -0.229900 3.086100 -8.518400 5.330212 0.987126 9.882772 0.808684 1.244303 -4.944800 -1.387162 -0.325966 -14.871188 0.866068 -2.114367 -22.468880 3.542707 -6.768717 21.459110 -0.907800 -3.349800 16.261100 8.504851 -6.728734 1.047907 -85.179081 13.715944 24.239096 17.821265 -29.803348 -4.798584 -0.300526 2.871032 -0.350438 18.493446 25.121832 7.294500 -7.125000 0.000000 0.000000 -10.360600 52.843000 -2.016700 -9.875096 6.857218 1.873477 70.637314 -13.426618 64.547362 -27.036877 38.891299 -6.698598 0.720190 -2.808175 -16.981141 -18.522670 -17.444379 4.735100 7.125000 0.000000 0.000000 8.408800 -44.937100 0.013200 
-40.273590 17.503974 -2.138425 -175.937793 -2.187126 -172.656104 20.860120 3.362566 -2.043706 -41.970253 -37.769861 18.290154 -12.126978 -2.990512 -3.564668 6.150920 -8.378196 -43.525196 2.051900 -8.973400 -25.712200 -24.461642 -3.876391 -4.856061 51.891645 17.116445 11.124559 14.665679 2.318764 -3.739018 -3.342856 -11.591805 -33.878344 -0.012100 0.711400 -1.954900 5.931932 0.951162 9.806487 0.822712 1.209594 -5.019337 -1.586531 -0.426420 -15.045797 0.115581 -2.049412 -21.449985 3.816715 -6.473432 21.343138 -0.557800 -3.372000 15.951600 8.527016 -6.792249 1.061666 -85.532389 14.325203 24.390547 17.847909 -29.863212 -4.812914 -0.266305 2.884851 -0.315548 18.887816 25.066652 7.421100 -7.125000 0.000000 0.000000 -9.969600 52.834400 -1.937300 -9.890196 6.885400 1.879380 71.451409 -13.908057 64.754296 -26.526258 38.668963 -6.729140 0.434132 -2.978764 -19.730635 -24.163478 -16.916837 5.925500 7.125000 0.000000 0.000000 3.513400 -44.874300 0.010900 
-40.275095 17.505908 -2.146591 -175.885982 -2.276091 -172.729761 20.847522 3.349663 -2.038809 -42.039803 -38.030424 18.534303 -12.055197 -3.027250 -3.602880 6.134543 -9.665079 -43.297591 1.813800 -8.466900 -24.141600 -24.478121 -3.870362 -4.836060 51.976054 17.301345 11.291989 14.681720 2.380726 -3.825060 -3.376387 -11.766562 -34.117447 -0.008600 0.599800 -1.648100 6.353265 0.860495 9.479639 0.865879 1.064779 -5.066235 -1.644715 -0.553493 -15.075562 -0.725820 -1.938872 -20.491386 4.219486 -6.097273 21.206656 -0.112600 -3.357700 15.644000 8.569707 -6.838222 1.071673 -85.959440 14.806636 24.182058 17.863159 -29.899199 -4.798413 -0.262663 2.881172 -0.356681 18.727781 24.712529 7.243600 -7.125000 0.000000 0.000000 -10.005100 52.453100 -1.850400 -9.943416 6.900069 1.899928 72.369088 -14.123975 63.574122 -25.736069 38.127275 -6.487277 0.360565 -3.050801 -17.838699 -24.623792 -18.119553 6.539700 7.125000 0.000000 0.000000 3.267600 -46.147500 -0.092600 
-40.278748 17.509346 -2.152393 -175.917031 -2.355146 -172.759420 20.858892 3.329734 -2.046251 -42.130276 -38.150525 18.627984 -11.905971 -3.065193 -3.656762 5.872157 -13.158252 -42.209623 1.297100 -7.215700 -20.355900 -24.469747 -3.861052 -4.816401 51.958475 17.501688 11.433161 14.669128 2.422403 -3.856128 -3.437056 -11.479282 -34.524530 -0.000100 0.051600 -0.141700 6.787268 0.705801 9.266716 0.875348 0.873924 -5.061716 -1.800346 -0.698070 -14.989795 -1.548714 -1.830548 -20.073376 4.653796 -5.684993 21.077535 0.346200 -3.288100 15.466500 8.594108 -6.869523 1.079174 -86.157022 14.898927 24.068614 17.852313 -29.901899 -4.794065 -0.278959 2.890366 -1.022076 18.807801 24.731255 7.271200 -7.125000 0.000000 0.000000 -9.944900 52.470800 -1.843400 -9.995899 6.892907 1.920992 73.109837 -14.177330 62.426090 -25.176052 37.785275 -6.342660 0.283560 -3.106373 -16.016754 -25.064040 -19.081267 7.067800 7.125000 0.000000 0.000000 3.003600 -47.180400 -0.161700 
-40.280467 17.510957 -2.157980 -175.897602 -2.404283 -172.779341 20.794761 3.333627 -2.040552 -42.081442 -38.270798 18.713038 -11.813897 -3.109542 -3.730952 5.690963 -15.045665 -41.547831 1.070500 -6.577300 -18.468800 -24.502166 -3.839504 -4.813736 51.983729 17.720154 11.542374 14.628967 2.444336 -3.850020 -3.552062 -10.463279 -35.236333 -0.043300 -1.342800 3.692500 5.192791 0.947692 9.208173 1.214891 0.970896 -4.986050 -0.360049 -0.347570 -14.705348 -0.050980 -1.914586 -20.848885 3.703527 -6.158312 21.162933 -0.614600 -3.295500 15.657300 8.714130 -6.813831 1.035154 -86.195740 14.240861 24.480405 17.523687 -29.746778 -4.713891 -0.237513 2.911220 -0.743027 19.091309 24.621382 7.333200 -7.125000 0.000000 0.000000 -9.640400 52.382300 -1.765100 -10.007439 6.965805 1.971426 73.850451 -14.411030 60.155000 -24.727087 37.409565 -6.209387 0.219032 -3.103152 -14.133006 -24.694425 -18.898323 6.885500 7.125000 0.000000 0.000000 3.284900 -46.942200 -0.157600 
-40.276599 17.509668 -2.165716 -175.719234 -2.451925 -172.850158 20.753472 3.356296 -2.060877 -41.783318 -38.054725 18.667517 -11.819743 -3.129553 -3.742316 5.636676 -14.976181 -41.285587 1.029200 -6.453100 -18.104800 -24.555075 -3.833867 -4.794954 52.343096 17.943761 11.796106 14.619287 2.489674 -3.877400 -3.686438 -9.366651 -35.971101 -0.193800 -2.834800 7.819300 5.045669 0.984075 9.190756 1.303785 0.992692 -4.957154 -0.146666 -0.293561 -14.599187 0.321107 -1.905162 -21.050344 3.499447 -6.217591 21.154667 -0.832500 -3.268500 15.679200 8.752227 -6.813404 1.022924 -86.166284 14.037115 23.849891 17.268496 -29.594061 -4.742174 -0.117981 2.963923 0.873180 20.199950 25.597903 8.078700 -7.125000 0.000000 0.000000 -8.896300 53.505300 -1.872400 -10.043763 6.993404 2.000666 74.728596 -14.567606 58.584932 -24.321817 37.165439 -6.102344 0.158801 -3.126692 -12.554752 -24.663767 -19.181364 6.992200 7.125000 0.000000 0.000000 3.341200 -47.217100 -0.183000 
-40.271119 17.508594 -2.173881 -175.623765 -2.449391 -172.934402 20.745075 3.372470 -2.075309 -41.719054 -38.003667 18.821777 -11.822756 -3.173441 -3.785234 5.667159 -14.956471 -41.346542 1.016700 -6.415100 -17.993600 -24.621235 -3.825569 -4.778075 52.728003 18.191163 12.079163 14.657966 2.508969 -3.849871 -3.769687 -9.222918 -36.344389 -0.273500 -3.364000 9.293900 5.041396 0.992347 9.186792 1.337953 0.998774 -4.943538 -0.108934 -0.280801 -14.547335 0.306152 -1.941210 -21.097546 3.554180 -6.253505 21.137436 -0.813700 -3.273700 15.676700 8.749317 -6.827743 1.027748 -86.127833 14.175539 24.587109 17.532195 -29.897863 -4.834370 -0.161903 2.982467 -0.983951 20.795768 25.702463 8.336800 -7.125000 0.000000 0.000000 -8.369900 53.683500 -1.796800 -10.081959 7.028091 2.029586 75.637884 -14.821883 57.023391 -23.945466 36.964785 -6.011443 0.069026 -3.136410 -10.913285 -24.860851 -19.060077 6.998700 7.125000 0.000000 0.000000 3.129000 -47.102000 -0.162500 
-40.267896 17.507949 -2.180973 -175.709608 -2.434771 -172.992875 20.770613 3.369840 -2.085755 -41.932627 -38.001122 19.010663 -11.835876 -3.206821 -3.814376 5.700580 -14.948486 -41.480488 1.036800 -6.476300 -18.172900 -24.637657 -3.808985 -4.759234 52.810766 18.438107 12.325891 14.666382 2.567971 -3.892494 -3.831749 -9.188765 -36.664369 -0.383000 -3.974100 11.003900 5.029697 0.986509 9.168076 1.333801 0.991507 -4.947148 -0.266100 -0.291031 -14.527981 0.181920 -2.024391 -21.063608 3.665139 -6.322563 21.093810 -0.751600 -3.304000 15.642200 8.783067 -6.851129 1.024180 -86.021524 14.187069 23.842449 17.449452 -29.795204 -4.803884 -0.165708 2.963573 0.715198 19.839664 25.839966 8.023400 -7.125000 0.000000 0.000000 -9.315400 53.694600 -2.005000 -10.225722 7.098517 2.084283 77.849236 -14.978365 53.561557 -22.673904 36.139758 -5.638611 -0.152354 -3.145491 -7.286204 -25.128476 -18.528114 6.840000 7.125000 0.000000 0.000000 2.799400 -46.548300 -0.107000 
-40.265425 17.505263 -2.188923 -175.843287 -2.451615 -173.025444 20.797629 3.364147 -2.100170 -42.107108 -37.860950 19.030773 -11.862135 -3.197168 -3.774508 5.674822 -14.842215 -41.415297 1.051300 -6.519800 -18.300200 -24.619899 -3.788087 -4.738255 52.673829 18.671407 12.512432 14.663992 2.685209 -4.073265 -3.840358 -9.609031 -36.766119 -0.409800 -4.109400 11.384600 4.819763 0.998506 9.131866 1.324376 0.984254 -4.949964 -0.209536 -0.274938 -14.516116 0.290735 -2.066425 -21.090700 3.536637 -6.396908 21.057022 -0.857500 -3.326600 15.615800 8.773979 -6.845663 1.029927 -85.921368 14.255128 24.635587 17.645847 -29.957558 -4.803892 -0.265309 2.939685 -1.227551 19.404561 25.321632 7.677100 -7.125000 0.000000 0.000000 -9.568800 53.112100 -1.923500 -10.213582 7.090535 2.077556 77.697815 -14.911111 53.833507 -22.770054 36.206468 -5.671880 -0.130197 -3.155887 -7.661827 -25.151885 -18.769104 6.948300 7.125000 0.000000 0.000000 2.816900 -46.800900 -0.125300 
-40.264243 17.500965 -2.195692 -175.988686 -2.514489 -173.051210 20.830472 3.359272 -2.123531 -42.154928 -37.475777 18.791913 -11.901331 -3.126866 -3.631683 5.541170 -14.746518 -40.967867 1.059800 -6.545300 -18.375000 -24.610346 -3.771058 -4.720390 52.567454 18.869598 12.681231 14.661958 2.767663 -4.183401 -3.857477 -9.888825 -36.899674 -0.405300 -4.087100 11.321700 4.557704 0.987821 9.082266 1.330403 0.937009 -4.947661 -0.090492 -0.266455 -14.479943 0.464123 -2.034088 -21.123403 3.385724 -6.377169 21.029682 -0.981800 -3.303700 15.592200 8.789657 -6.839190 1.025281 -85.912698 14.165735 24.482367 17.590607 -29.857330 -4.722942 -0.328965 2.898834 -1.153175 18.211223 24.798588 7.066200 -7.125000 0.000000 0.000000 -10.520000 52.436800 -1.943100 -10.202991 7.088455 2.076587 77.625292 -14.897007 53.920634 -22.904410 36.305901 -5.701255 -0.109282 -3.140714 -7.728914 -24.890158 -18.533242 6.776900 7.125000 0.000000 0.000000 3.008800 -46.531100 -0.113800 
